<?xml version="1.0" encoding="UTF-8"?>
<svg id="Layer_2" data-name="Layer 2" xmlns="http://www.w3.org/2000/svg" viewBox="0 0 39.9 35.26">
  <defs>
    <style>
      .cls-1 {
        fill: #edafaa;
      }
    </style>
  </defs>
  <g id="Layer_1-2" data-name="Layer 1">
    <g>
      <path class="cls-1" d="M27.45,17.79c0-4.14-3.36-7.5-7.5-7.5s-7.5,3.36-7.5,7.5,3.36,7.5,7.5,7.5,7.5-3.36,7.5-7.5Zm-7.5,4.5c-2.48,0-4.5-2.02-4.5-4.5s2.02-4.5,4.5-4.5,4.5,2.02,4.5,4.5-2.02,4.5-4.5,4.5Z"/>
      <path class="cls-1" d="M38.4,16.13h-4.5c-.83,0-1.5,.67-1.5,1.5s.67,1.5,1.5,1.5h4.5c.83,0,1.5-.67,1.5-1.5s-.67-1.5-1.5-1.5Z"/>
      <path class="cls-1" d="M6,16.13H1.5c-.83,0-1.5,.67-1.5,1.5s.67,1.5,1.5,1.5H6c.83,0,1.5-.67,1.5-1.5s-.67-1.5-1.5-1.5Z"/>
      <path class="cls-1" d="M28.03,29.09c-.4-.72-1.32-.99-2.04-.58-.72,.4-.99,1.32-.58,2.04l2.18,3.93c.27,.49,.79,.77,1.31,.77,.25,0,.5-.06,.73-.19,.72-.4,.99-1.32,.58-2.04l-2.18-3.93Z"/>
      <path class="cls-1" d="M11.87,6.16c.27,.49,.79,.77,1.31,.77,.25,0,.5-.06,.73-.19,.72-.4,.99-1.32,.58-2.04L12.3,.77c-.4-.72-1.31-.98-2.04-.58-.72,.4-.99,1.32-.58,2.04l2.18,3.93Z"/>
      <path class="cls-1" d="M13.56,28.31c-.71-.42-1.63-.19-2.06,.52l-2.31,3.86c-.42,.71-.19,1.63,.52,2.06,.24,.14,.51,.21,.77,.21,.51,0,1.01-.26,1.29-.73l2.31-3.86c.42-.71,.19-1.63-.52-2.06Z"/>
      <path class="cls-1" d="M30.19,.51c-.71-.42-1.63-.19-2.06,.52l-2.31,3.86c-.42,.71-.19,1.63,.52,2.06,.24,.14,.51,.21,.77,.21,.51,0,1.01-.26,1.29-.73l2.31-3.86c.42-.71,.19-1.63-.52-2.06Z"/>
    </g>
  </g>
</svg>