<svg xmlns="http://www.w3.org/2000/svg" width="23" height="22.457" viewBox="0 0 23 22.457">
  <g id="Union_17" data-name="Union 17" transform="translate(0 1)" fill="none">
    <path d="M8.978,8.92a11.526,11.526,0,0,1-5.16-2.662A11.752,11.752,0,0,1,0-1H23a11.759,11.759,0,0,1-3.819,7.258A11.532,11.532,0,0,1,14.021,8.92v9.243L8.978,21.457Z" stroke="none"/>
    <path d="M 1.852781295776367 0.5000991821289062 C 2.397144317626953 2.279138565063477 3.418243408203125 3.887287139892578 4.819129943847656 5.140048980712891 C 6.094680786132812 6.281819343566895 7.646759986877441 7.082798957824707 9.307590484619141 7.456398963928223 L 10.47840023040771 7.719769477844238 L 10.47840023040771 18.68540573120117 L 12.52110004425049 17.35107040405273 L 12.52110004425049 7.719829559326172 L 13.69192028045654 7.456469535827637 C 15.35268020629883 7.08290958404541 16.90516090393066 6.281829833984375 18.18132972717285 5.139999389648438 C 19.58206176757812 3.886299133300781 20.60316467285156 2.278127670288086 21.14749908447266 0.5000991821289062 L 1.852781295776367 0.5000991821289062 M 0 -0.9999008178710938 L 23.00040054321289 -0.9999008178710938 C 22.63949966430664 1.800899505615234 21.28230094909668 4.377599716186523 19.18169975280762 6.257699012756348 C 17.70075988769531 7.582749366760254 15.92362022399902 8.491969108581543 14.02110004425049 8.919909477233887 L 14.02110004425049 18.16289901733398 L 8.978400230407715 21.45689964294434 L 8.978400230407715 8.919829368591309 C 7.075819969177246 8.491848945617676 5.298879623413086 7.582639694213867 3.818700790405273 6.257699012756348 C 1.716300964355469 4.377599716186523 0.36090087890625 1.799999237060547 0 -0.9999008178710938 Z" stroke="none" fill="#000"/>
  </g>
</svg>
